<?xml version="1.0" encoding="utf-8"?>
<!-- Generator: Adobe Illustrator 23.0.0, SVG Export Plug-In . SVG Version: 6.00 Build 0)  -->
<svg version="1.1" id="Layer_1" xmlns="http://www.w3.org/2000/svg" xmlns:xlink="http://www.w3.org/1999/xlink" x="0px" y="0px"
	 viewBox="0 0 76.3 26.6" style="enable-background:new 0 0 76.3 26.6;" xml:space="preserve">
<style type="text/css">
	.st0{fill:#E6DBC4;}
	.st1{fill:#020202;}
	.st2{fill:#F5F1E8;}
	.st3{font-family:'MyriadPro-Regular';}
	.st4{font-size:8.0928px;}
</style>
<path class="st0" d="M34.1,26.6H13.3C5.9,26.6,0,20.6,0,13.3l0,0C0,5.9,5.9,0,13.3,0h20.8V26.6z"/>
<circle class="st0" cx="17" cy="13.3" r="7"/>
<path class="st1" d="M17,20.8c-4.1,0-7.5-3.4-7.5-7.5s3.4-7.5,7.5-7.5s7.5,3.4,7.5,7.5S21.2,20.8,17,20.8z M17,6.8
	c-3.6,0-6.5,2.9-6.5,6.5s2.9,6.5,6.5,6.5s6.5-2.9,6.5-6.5S20.6,6.8,17,6.8z"/>
<rect x="15.5" y="9.8" class="st1" width="1" height="5"/>
<rect x="15.5" y="14.3" class="st1" width="5" height="1"/>
<path class="st2" d="M63,26.6H32V0H63c7.3,0,13.3,5.9,13.3,13.3l0,0C76.3,20.6,70.4,26.6,63,26.6z"/>
<text transform="matrix(1 0 0 1 35.0952 15.283)" class="st3 st4">Read Later</text>
</svg>
